<svg xmlns="http://www.w3.org/2000/svg" viewBox="0 0 512 512" width="512" height="512">
  <defs>
    <linearGradient id="bg" x1="0" y1="0" x2="1" y2="1">
      <stop offset="0" stop-color="#1e293b"/>
      <stop offset="1" stop-color="#0b1220"/>
    </linearGradient>
  </defs>

  <!-- rounded-square background -->
  <rect width="512" height="512" rx="112" fill="url(#bg)"/>

  <!-- card / document outline (bold white stroke) -->
  <rect x="96" y="80" width="320" height="352" rx="28"
        fill="none" stroke="#ffffff" stroke-width="28"/>

  <!-- review / recall loop arrow (bold blue, centered) -->
  <g transform="translate(130 140) scale(9)" fill="#60a5fa">
    <path d="M17.65 6.35A7.958 7.958 0 0 0 12 4c-4.42 0-7.99 3.58-7.99 8s3.57 8 7.99 8c3.73 0 6.84-2.55 7.73-6h-2.08A5.99 5.99 0 0 1 12 18c-3.31 0-6-2.69-6-6s2.69-6 6-6c1.66 0 3.14.69 4.22 1.78L13 11h7V4l-2.35 2.35z"/>
  </g>
</svg>
